<?xml version="1.0" encoding="UTF-8" standalone="no"?>
<!-- Created with Inkscape (http://www.inkscape.org/) -->

<svg
   width="500mm"
   height="100mm"
   viewBox="0 0 500 100"
   version="1.1"
   id="svg278"
   inkscape:version="1.2 (dc2aedaf03, 2022-05-15)"
   sodipodi:docname="jmidevdesktopenvironmentlogo.svg"
   xmlns:inkscape="http://www.inkscape.org/namespaces/inkscape"
   xmlns:sodipodi="http://sodipodi.sourceforge.net/DTD/sodipodi-0.dtd"
   xmlns="http://www.w3.org/2000/svg"
   xmlns:svg="http://www.w3.org/2000/svg">
  <sodipodi:namedview
     id="namedview280"
     pagecolor="#2d2d2d"
     bordercolor="#666666"
     borderopacity="1.0"
     inkscape:showpageshadow="2"
     inkscape:pageopacity="0"
     inkscape:pagecheckerboard="0"
     inkscape:deskcolor="#d1d1d1"
     inkscape:document-units="mm"
     showgrid="false"
     inkscape:zoom="0.2973261"
     inkscape:cx="1664.8387"
     inkscape:cy="279.15477"
     inkscape:window-width="1920"
     inkscape:window-height="1009"
     inkscape:window-x="-8"
     inkscape:window-y="-8"
     inkscape:window-maximized="1"
     inkscape:current-layer="layer1" />
  <defs
     id="defs275">
    <rect
       x="1098.7375"
       y="133.1803"
       width="851.40265"
       height="141.54568"
       id="rect580" />
  </defs>
  <g
     inkscape:label="Capa 1"
     inkscape:groupmode="layer"
     id="layer1">
    <g
       transform="matrix(0.70655241,0,0,0.70655241,63.342996,-27.199864)"
       style="font-style:normal;font-weight:normal;font-size:72.8841px;line-height:1.25;font-family:sans-serif;letter-spacing:0px;word-spacing:0px;fill:#ffffff;fill-opacity:1;stroke:none;stroke-width:1.8221"
       id="text841"
       aria-label="JMI"
       inkscape:export-xdpi="384.8205"
       inkscape:export-ydpi="384.8205">
      <path
         id="path861"
         style="font-style:normal;font-variant:normal;font-weight:300;font-stretch:normal;font-size:72.8841px;font-family:Roboto;-inkscape-font-specification:'Roboto, Light';font-variant-ligatures:normal;font-variant-caps:normal;font-variant-numeric:normal;font-variant-east-asian:normal;fill:#ffffff;fill-opacity:1;stroke-width:1.8221"
         d="m 51.873215,78.803893 h 4.412904 v 36.406467 q 0,7.3667 -4.270553,11.74402 -4.234964,4.37731 -11.38814,4.37731 -7.544644,0 -11.601669,-3.95026 -4.057025,-3.95026 -4.057025,-11.03226 h 4.377316 q 0,5.62289 2.953799,8.46993 2.9538,2.81145 8.327579,2.81145 4.946723,0 8.042874,-3.27409 3.131739,-3.27409 3.202915,-8.89699 z" />
      <path
         id="path863"
         style="font-style:normal;font-variant:normal;font-weight:300;font-stretch:normal;font-size:72.8841px;font-family:Roboto;-inkscape-font-specification:'Roboto, Light';font-variant-ligatures:normal;font-variant-caps:normal;font-variant-numeric:normal;font-variant-east-asian:normal;fill:#ffffff;fill-opacity:1;stroke-width:1.8221"
         d="M 74.934199,78.803893 94.044923,124.5344 113.22682,78.803893 h 5.83643 v 51.816037 h -4.37732 V 108.05718 L 115.04181,84.925019 95.753145,130.61993 H 92.37229 l -19.217488,-45.516972 0.35588,22.811872 v 22.7051 H 69.133365 V 78.803893 Z" />
      <path
         id="path865"
         style="font-style:normal;font-variant:normal;font-weight:300;font-stretch:normal;font-size:72.8841px;font-family:Roboto;-inkscape-font-specification:'Roboto, Light';font-variant-ligatures:normal;font-variant-caps:normal;font-variant-numeric:normal;font-variant-east-asian:normal;fill:#ffffff;fill-opacity:1;stroke-width:1.8221"
         d="m 137.53338,130.61993 h -4.37731 V 78.803893 h 4.37731 z" />
    </g>
    <g
       transform="matrix(0.70655241,0,0,0.70655241,63.342996,-27.199864)"
       style="font-style:normal;font-weight:normal;font-size:72.884px;line-height:1.25;font-family:sans-serif;letter-spacing:0px;word-spacing:0px;fill:#ffffff;fill-opacity:1;stroke:none;stroke-width:1.8221"
       id="text841-7"
       aria-label="DEV"
       inkscape:export-xdpi="384.8205"
       inkscape:export-ydpi="384.8205">
      <path
         id="path868"
         style="font-style:normal;font-variant:normal;font-weight:bold;font-stretch:normal;font-size:72.884px;font-family:Roboto;-inkscape-font-specification:'Roboto, Bold';font-variant-ligatures:normal;font-variant-caps:normal;font-variant-numeric:normal;font-variant-east-asian:normal;fill:#ffffff;fill-opacity:1;stroke-width:1.8221"
         d="M 147.87319,130.32176 V 78.505791 h 15.94338 q 6.83287,0 12.20664,3.096147 5.40936,3.060559 8.43433,8.754621 3.02497,5.658475 3.02497,12.882821 v 2.38439 q 0,7.22434 -2.98938,12.84722 -2.95379,5.62289 -8.36315,8.71904 -5.40936,3.09614 -12.20665,3.13173 z m 10.67637,-43.168111 v 34.591431 h 5.16024 q 6.26347,0 9.57315,-4.09261 3.30967,-4.09261 3.38085,-11.70841 v -2.74027 q 0,-7.900514 -3.27409,-11.957533 -3.27409,-4.092608 -9.57314,-4.092608 z" />
      <path
         id="path870"
         style="font-style:normal;font-variant:normal;font-weight:bold;font-stretch:normal;font-size:72.884px;font-family:Roboto;-inkscape-font-specification:'Roboto, Bold';font-variant-ligatures:normal;font-variant-caps:normal;font-variant-numeric:normal;font-variant-east-asian:normal;fill:#ffffff;fill-opacity:1;stroke-width:1.8221"
         d="m 226.45126,107.8658 h -20.49863 v 13.87928 h 24.05742 v 8.57668 H 195.27626 V 78.505791 h 34.66261 v 8.647858 h -23.98624 v 12.348999 h 20.49863 z" />
      <path
         id="path872"
         style="font-style:normal;font-variant:normal;font-weight:bold;font-stretch:normal;font-size:72.884px;font-family:Roboto;-inkscape-font-specification:'Roboto, Bold';font-variant-ligatures:normal;font-variant-caps:normal;font-variant-numeric:normal;font-variant-east-asian:normal;fill:#ffffff;fill-opacity:1;stroke-width:1.8221"
         d="m 255.41981,117.47453 11.744,-38.968739 h 11.88636 L 261.00711,130.32176 H 249.8681 L 231.89621,78.505791 h 11.85077 z" />
    </g>
    <path
       sodipodi:nodetypes="ccc"
       id="path877"
       d="M 79.800936,74.930842 H 268.42352 v -46.6123"
       style="fill:none;stroke:#ffffff;stroke-width:3.065;stroke-linecap:butt;stroke-linejoin:miter;stroke-miterlimit:4;stroke-dasharray:none;stroke-opacity:1"
       inkscape:export-xdpi="384.8205"
       inkscape:export-ydpi="384.8205" />
    <path
       id="path1466"
       d="m 70.712926,54.897072 c 3.68529,-20.6942 -16.22937,-27.57004 -16.22937,-27.57004 0,0 1.9043,-1.43657 3.20725,-3.44109 1.30294,-2.00452 0.0334,-3.0736 0.0334,-3.0736 0,0 -0.56796,-1.03567 -4.34316,-0.50113 -3.7752,0.53454 -6.3811,4.74403 -6.3811,4.74403 -6.81541,-0.20045 -11.25879,2.70611 -11.25879,2.70611 0,0 1.63704,-4.14268 -0.50113,-4.67722 -2.13817,-0.53454 -3.64157,1.36976 -3.64157,1.36976 0,0 -3.541335,3.842 -5.612675,6.61492 -2.07134,2.77292 -0.53575,3.70102 -0.53575,3.70102 -8.03199,9.82738 -6.80357,21.73364 -6.80357,21.73364 0,0 1.39258,23.34203 30.525065,23.34203 29.13254,0 24.85621,-22.98518 24.85621,-22.98518 0,0 0.25259,-1.78834 -3.31482,-1.96325 z"
       style="fill:none;fill-opacity:1;stroke:#ffffff;stroke-width:4.165;stroke-linecap:round;stroke-linejoin:round;stroke-miterlimit:4;stroke-dasharray:none;stroke-opacity:1"
       inkscape:export-xdpi="770.03229"
       inkscape:export-ydpi="770.03229" />
    <path
       style="fill:none;stroke:#ffffff;stroke-width:4.165;stroke-linecap:round;stroke-linejoin:round;stroke-miterlimit:4;stroke-dasharray:none;stroke-opacity:1"
       d="m 45.085996,42.404952 v 10.01637"
       id="path842"
       inkscape:export-xdpi="770.03229"
       inkscape:export-ydpi="770.03229" />
    <path
       id="path842-2"
       d="m 58.844416,42.404952 v 10.01637"
       style="fill:none;stroke:#ffffff;stroke-width:4.16499;stroke-linecap:round;stroke-linejoin:round;stroke-miterlimit:4;stroke-dasharray:none;stroke-opacity:1"
       inkscape:export-xdpi="770.03229"
       inkscape:export-ydpi="770.03229" />
    <g
       aria-label="DESKTOP
ENVIRONMENT"
       transform="matrix(0.70756528,0,0,0.70756528,-500.13914,-79.696205)"
       id="text578"
       style="font-weight:bold;font-size:40px;line-height:1.25;font-family:Poppins;-inkscape-font-specification:'Poppins, Bold';white-space:pre;shape-inside:url(#rect580);fill:#ffffff">
      <path
         d="m 1110.4983,155.25709 q 4.56,0 7.88,1.72 3.36,1.68 5.12,4.84 1.8,3.16 1.8,7.44 0,4.28 -1.8,7.44 -1.76,3.12 -5.12,4.8 -3.32,1.64 -7.88,1.64 h -8.68 v -27.88 z m 0,24.88 q 5.4,0 8.24,-2.84 2.84,-2.88 2.84,-8.04 0,-5.2 -2.88,-8.12 -2.84,-2.92 -8.2,-2.92 h -5.04 v 21.92 z"
         style="font-weight:normal;-inkscape-font-specification:'Poppins, Normal'"
         id="path1382" />
      <path
         d="m 1133.7383,158.21709 v 9.32 h 10.16 v 3 h -10.16 v 9.6 h 11.36 v 3 h -15 v -27.92 h 15 v 3 z"
         style="font-weight:normal;-inkscape-font-specification:'Poppins, Normal'"
         id="path1384" />
      <path
         d="m 1159.4583,183.41709 q -2.76,0 -4.96,-0.96 -2.16,-1 -3.4,-2.72 -1.24,-1.76 -1.28,-4.04 h 3.88 q 0.2,1.96 1.6,3.32 1.44,1.32 4.16,1.32 2.6,0 4.08,-1.28 1.52,-1.32 1.52,-3.36 0,-1.6 -0.88,-2.6 -0.88,-1 -2.2,-1.52 -1.32,-0.52 -3.56,-1.12 -2.76,-0.72 -4.44,-1.44 -1.64,-0.72 -2.84,-2.24 -1.16,-1.56 -1.16,-4.16 0,-2.28 1.16,-4.04 1.16,-1.76 3.24,-2.72 2.12,-0.96 4.84,-0.96 3.92,0 6.4,1.96 2.52,1.96 2.84,5.2 h -4 q -0.2,-1.6 -1.68,-2.8 -1.48,-1.24 -3.92,-1.24 -2.28,0 -3.72,1.2 -1.44,1.16 -1.44,3.28 0,1.52 0.84,2.48 0.88,0.96 2.12,1.48 1.28,0.48 3.56,1.12 2.76,0.76 4.44,1.52 1.68,0.72 2.88,2.28 1.2,1.52 1.2,4.16 0,2.04 -1.08,3.84 -1.08,1.8 -3.2,2.92 -2.12,1.12 -5,1.12 z"
         style="font-weight:normal;-inkscape-font-specification:'Poppins, Normal'"
         id="path1386" />
      <path
         d="m 1189.2183,183.13709 -11.48,-12.72 v 12.72 h -3.64 v -27.88 h 3.64 v 12.92 l 11.52,-12.92 h 4.6 l -12.64,13.96 12.76,13.92 z"
         style="font-weight:normal;-inkscape-font-specification:'Poppins, Normal'"
         id="path1388" />
      <path
         d="m 1215.2184,155.25709 v 2.96 h -7.6 v 24.92 h -3.64 v -24.92 h -7.64 v -2.96 z"
         style="font-weight:normal;-inkscape-font-specification:'Poppins, Normal'"
         id="path1390" />
      <path
         d="m 1232.3384,183.41709 q -3.88,0 -7.08,-1.8 -3.2,-1.84 -5.08,-5.08 -1.84,-3.28 -1.84,-7.36 0,-4.08 1.84,-7.32 1.88,-3.28 5.08,-5.08 3.2,-1.84 7.08,-1.84 3.92,0 7.12,1.84 3.2,1.8 5.04,5.04 1.84,3.24 1.84,7.36 0,4.12 -1.84,7.36 -1.84,3.24 -5.04,5.08 -3.2,1.8 -7.12,1.8 z m 0,-3.16 q 2.92,0 5.24,-1.36 2.36,-1.36 3.68,-3.88 1.36,-2.52 1.36,-5.84 0,-3.36 -1.36,-5.84 -1.32,-2.52 -3.64,-3.88 -2.32,-1.36 -5.28,-1.36 -2.96,0 -5.28,1.36 -2.32,1.36 -3.68,3.88 -1.32,2.48 -1.32,5.84 0,3.32 1.32,5.84 1.36,2.52 3.68,3.88 2.36,1.36 5.28,1.36 z"
         style="font-weight:normal;-inkscape-font-specification:'Poppins, Normal'"
         id="path1392" />
      <path
         d="m 1269.7783,163.41709 q 0,3.48 -2.4,5.8 -2.36,2.28 -7.24,2.28 h -5.36 v 11.64 h -3.64 v -27.88 h 9 q 4.72,0 7.16,2.28 2.48,2.28 2.48,5.88 z m -9.64,5.08 q 3.04,0 4.48,-1.32 1.44,-1.32 1.44,-3.76 0,-5.16 -5.92,-5.16 h -5.36 v 10.24 z"
         style="font-weight:normal;-inkscape-font-specification:'Poppins, Normal'"
         id="path1394" />
      <path
         d="m 1108.0583,195.57969 v 5.68 h 9.16 v 5.28 h -9.16 v 6.16 h 10.36 v 5.48 h -17.2 v -28.08 h 17.2 v 5.48 z"
         id="path1396" />
      <path
         d="m 1147.9783,218.17969 h -6.84 l -11.44,-17.32 v 17.32 h -6.84 v -28.08 h 6.84 l 11.44,17.4 v -17.4 h 6.84 z"
         id="path1398" />
      <path
         d="m 1179.2983,190.09969 -9.96,28.08 h -8.56 l -9.96,-28.08 h 7.28 l 6.96,21.2 7,-21.2 z"
         id="path1400" />
      <path
         d="m 1188.9783,190.09969 v 28.08 h -6.84 v -28.08 z"
         id="path1402" />
      <path
         d="m 1208.2583,218.17969 -5.84,-10.6 h -1.64 v 10.6 h -6.84 v -28.08 h 11.48 q 3.32,0 5.64,1.16 2.36,1.16 3.52,3.2 1.16,2 1.16,4.48 0,2.8 -1.6,5 -1.56,2.2 -4.64,3.12 l 6.48,11.12 z m -7.48,-15.44 h 4.24 q 1.88,0 2.8,-0.92 0.96,-0.92 0.96,-2.6 0,-1.6 -0.96,-2.52 -0.92,-0.92 -2.8,-0.92 h -4.24 z"
         id="path1404" />
      <path
         d="m 1233.2983,218.45969 q -3.96,0 -7.28,-1.84 -3.28,-1.84 -5.24,-5.12 -1.92,-3.32 -1.92,-7.44 0,-4.12 1.92,-7.4 1.96,-3.28 5.24,-5.12 3.32,-1.84 7.28,-1.84 3.96,0 7.24,1.84 3.32,1.84 5.2,5.12 1.92,3.28 1.92,7.4 0,4.12 -1.92,7.44 -1.92,3.28 -5.2,5.12 -3.28,1.84 -7.24,1.84 z m 0,-6.24 q 3.36,0 5.36,-2.24 2.04,-2.24 2.04,-5.92 0,-3.72 -2.04,-5.92 -2,-2.24 -5.36,-2.24 -3.4,0 -5.44,2.2 -2,2.2 -2,5.96 0,3.72 2,5.96 2.04,2.2 5.44,2.2 z"
         id="path1406" />
      <path
         d="m 1276.5783,218.17969 h -6.84 l -11.44,-17.32 v 17.32 h -6.84 v -28.08 h 6.84 l 11.44,17.4 v -17.4 h 6.84 z"
         id="path1408" />
      <path
         d="m 1313.3383,190.09969 v 28.08 h -6.84 v -16.84 l -6.28,16.84 h -5.52 l -6.32,-16.88 v 16.88 h -6.84 v -28.08 h 8.08 l 7.88,19.44 7.8,-19.44 z"
         id="path1410" />
      <path
         d="m 1325.0983,195.57969 v 5.68 h 9.16 v 5.28 h -9.16 v 6.16 h 10.36 v 5.48 h -17.2 v -28.08 h 17.2 v 5.48 z"
         id="path1412" />
      <path
         d="m 1365.0183,218.17969 h -6.84 l -11.44,-17.32 v 17.32 h -6.84 v -28.08 h 6.84 l 11.44,17.4 v -17.4 h 6.84 z"
         id="path1414" />
      <path
         d="m 1390.1784,190.09969 v 5.48 h -7.44 v 22.6 h -6.84 v -22.6 h -7.44 v -5.48 z"
         id="path1416" />
    </g>
  </g>
</svg>
