<?xml version="1.0" encoding="UTF-8" standalone="no"?>
<svg
   height="48"
   width="48"
   version="1.1"
   id="svg313"
   sodipodi:docname="icon.svg"
   inkscape:version="1.2 (dc2aedaf03, 2022-05-15)"
   xmlns:inkscape="http://www.inkscape.org/namespaces/inkscape"
   xmlns:sodipodi="http://sodipodi.sourceforge.net/DTD/sodipodi-0.dtd"
   xmlns="http://www.w3.org/2000/svg"
   xmlns:svg="http://www.w3.org/2000/svg">
  <defs
     id="defs317" />
  <sodipodi:namedview
     id="namedview315"
     pagecolor="#ffffff"
     bordercolor="#666666"
     borderopacity="1.0"
     inkscape:showpageshadow="2"
     inkscape:pageopacity="0.0"
     inkscape:pagecheckerboard="0"
     inkscape:deskcolor="#d1d1d1"
     showgrid="false"
     inkscape:zoom="4.9166667"
     inkscape:cx="4.4745762"
     inkscape:cy="24"
     inkscape:window-width="1920"
     inkscape:window-height="1009"
     inkscape:window-x="-8"
     inkscape:window-y="-8"
     inkscape:window-maximized="1"
     inkscape:current-layer="svg313" />
  <rect
     style="fill:#414141;fill-opacity:1;fill-rule:evenodd;stroke:none;stroke-width:2;stroke-linecap:round;stroke-linejoin:round;paint-order:stroke fill markers"
     id="rect1043"
     width="48"
     height="48"
     x="0"
     y="0" />
  <path
     d="M 20.943729,37.288135 20.279322,33.102373 Q 19.648135,32.86983 18.950508,32.471187 18.252882,32.072542 17.721356,31.640678 l -3.92,1.793899 -3.089492,-5.448137 3.587797,-2.624406 Q 14.23322,25.063051 14.21661,24.681017 14.2,24.298983 14.2,24 q 0,-0.298983 0.01661,-0.681017 0.01661,-0.382034 0.08305,-0.681017 l -3.587796,-2.624406 3.089491,-5.448137 3.92,1.793899 q 0.531526,-0.431864 1.229153,-0.830509 0.697627,-0.398643 1.328814,-0.597966 l 0.664407,-4.218983 h 6.112541 l 0.664407,4.185763 q 0.631187,0.232543 1.345424,0.614576 0.714238,0.382034 1.212543,0.847119 l 3.92,-1.793899 3.089491,5.448137 -3.587796,2.557965 q 0.06644,0.332204 0.08305,0.714238 Q 33.8,23.667797 33.8,24 q 0,0.332203 -0.01661,0.697627 -0.01661,0.365424 -0.08305,0.697627 l 3.587796,2.591186 -3.089491,5.448137 -3.92,-1.793899 q -0.531526,0.431864 -1.212542,0.847119 -0.681018,0.415254 -1.345425,0.614576 l -0.664407,4.185762 z M 24,28.318644 q 1.793898,0 3.056271,-1.262373 Q 28.318644,25.793898 28.318644,24 q 0,-1.793898 -1.262373,-3.056271 Q 25.793898,19.681356 24,19.681356 q -1.793898,0 -3.056271,1.262373 Q 19.681356,22.206102 19.681356,24 q 0,1.793898 1.262373,3.056271 Q 22.206102,28.318644 24,28.318644 Z m 0,-1.993221 q -0.96339,0 -1.644407,-0.681016 Q 21.674577,24.96339 21.674577,24 q 0,-0.96339 0.681016,-1.644407 Q 23.03661,21.674577 24,21.674577 q 0.96339,0 1.644407,0.681016 0.681016,0.681017 0.681016,1.644407 0,0.96339 -0.681016,1.644407 Q 24.96339,26.325423 24,26.325423 Z M 24,24 Z m -1.461695,11.294915 h 2.92339 l 0.465085,-3.720678 q 1.096271,-0.265762 2.076271,-0.830508 0.98,-0.564746 1.777288,-1.362034 l 3.521356,1.528135 1.328813,-2.391864 -3.122711,-2.292203 Q 31.640678,25.661017 31.723729,25.112882 31.80678,24.564745 31.80678,24 q 0,-0.564746 -0.06644,-1.112882 -0.06644,-0.548135 -0.232543,-1.112881 L 34.630509,19.482034 33.301695,17.09017 29.78034,18.618305 Q 29.016271,17.754577 28.052882,17.17322 27.089492,16.591865 25.92678,16.425763 l -0.465085,-3.720678 h -2.92339 l -0.465084,3.720678 q -1.129491,0.232542 -2.109491,0.797288 -0.98,0.564746 -1.744069,1.395254 l -3.521356,-1.528135 -1.328813,2.391864 3.122712,2.292203 q -0.132881,0.564746 -0.215933,1.112881 -0.08305,0.548136 -0.08305,1.112882 0,0.564745 0.08305,1.112882 0.08305,0.548135 0.215933,1.112881 l -3.122712,2.292203 1.328813,2.391864 3.521356,-1.528135 q 0.797289,0.797288 1.777289,1.362034 0.98,0.564746 2.076271,0.830508 z"
     id="path311"
     style="fill:#ffffff;fill-opacity:1;stroke-width:0.664407" />
</svg>
