<?xml version="1.0" encoding="UTF-8" standalone="no"?>
<!-- Created with Inkscape (http://www.inkscape.org/) -->

<svg
   width="210mm"
   height="210mm"
   viewBox="0 0 210 210"
   version="1.1"
   id="svg5"
   inkscape:version="1.2 (dc2aedaf03, 2022-05-15)"
   sodipodi:docname="startmenuhover.svg"
   inkscape:export-filename="startmenuhover.png"
   inkscape:export-xdpi="30.963808"
   inkscape:export-ydpi="30.963808"
   xmlns:inkscape="http://www.inkscape.org/namespaces/inkscape"
   xmlns:sodipodi="http://sodipodi.sourceforge.net/DTD/sodipodi-0.dtd"
   xmlns="http://www.w3.org/2000/svg"
   xmlns:svg="http://www.w3.org/2000/svg">
  <sodipodi:namedview
     id="namedview7"
     pagecolor="#525252"
     bordercolor="#666666"
     borderopacity="1.0"
     inkscape:showpageshadow="2"
     inkscape:pageopacity="0"
     inkscape:pagecheckerboard="0"
     inkscape:deskcolor="#d1d1d1"
     inkscape:document-units="mm"
     showgrid="false"
     inkscape:zoom="0.57685674"
     inkscape:cx="164.6856"
     inkscape:cy="292.96702"
     inkscape:window-width="1920"
     inkscape:window-height="1009"
     inkscape:window-x="-8"
     inkscape:window-y="-8"
     inkscape:window-maximized="1"
     inkscape:current-layer="svg5" />
  <defs
     id="defs2" />
  <circle
     style="fill:#ffffff;fill-opacity:1;fill-rule:evenodd;stroke:none;stroke-width:0.529167;stroke-linecap:round;stroke-linejoin:round;paint-order:stroke fill markers"
     id="path403"
     cx="105"
     cy="105"
     r="105" />
  <g
     id="g480"
     transform="matrix(2.0120765,0,0,2.0120765,-279.06189,43.227805)"
     style="display:inline;stroke:#000000;stroke-opacity:1">
    <path
       id="path1466"
       d="m 215.17592,35.597793 c 3.68527,-20.694204 -16.22928,-27.57004 -16.22928,-27.57004 0,0 1.90429,-1.436574 3.20723,-3.441095 1.30294,-2.004522 0.0334,-3.0736 0.0334,-3.0736 0,0 -0.56795,-1.035669 -4.34313,-0.50113 -3.77518,0.534539 -6.38106,4.744034 -6.38106,4.744034 -6.81537,-0.200452 -11.25873,2.706104 -11.25873,2.706104 0,0 1.63703,-4.142678 -0.50113,-4.677217 -2.13816,-0.534539 -3.64155,1.369756 -3.64155,1.369756 0,0 -3.54132,3.842 -5.61266,6.614921 -2.07134,2.772922 -0.53575,3.701026 -0.53575,3.701026 -8.03199,9.82738 -6.80357,21.733641 -6.80357,21.733641 0,0 1.39258,23.34203 30.52495,23.34203 29.13238,0 24.85607,-22.98518 24.85607,-22.98518 0,0 0.25259,-1.78834 -3.3148,-1.96325 z"
       style="fill:none;fill-opacity:1;stroke:#000000;stroke-width:4.165;stroke-linecap:round;stroke-linejoin:round;stroke-miterlimit:4;stroke-dasharray:none;stroke-opacity:1"
       inkscape:export-xdpi="770.03229"
       inkscape:export-ydpi="770.03229" />
    <path
       style="fill:none;stroke:#000000;stroke-width:4.165;stroke-linecap:round;stroke-linejoin:round;stroke-miterlimit:4;stroke-dasharray:none;stroke-opacity:1"
       d="M 189.54914,23.105669 V 33.122043"
       id="path842"
       inkscape:export-xdpi="770.03229"
       inkscape:export-ydpi="770.03229" />
    <path
       id="path842-2"
       d="M 203.30748,23.105666 V 33.122043"
       style="fill:none;stroke:#000000;stroke-width:4.16499;stroke-linecap:round;stroke-linejoin:round;stroke-miterlimit:4;stroke-dasharray:none;stroke-opacity:1"
       inkscape:export-xdpi="770.03229"
       inkscape:export-ydpi="770.03229" />
  </g>
  <g
     inkscape:label="Capa 1"
     inkscape:groupmode="layer"
     id="layer1" />
</svg>
