<?xml version="1.0" encoding="UTF-8" standalone="no"?>
<svg
   height="48"
   width="48"
   version="1.1"
   id="svg4"
   sodipodi:docname="video.svg"
   inkscape:version="1.2 (dc2aedaf03, 2022-05-15)"
   xmlns:inkscape="http://www.inkscape.org/namespaces/inkscape"
   xmlns:sodipodi="http://sodipodi.sourceforge.net/DTD/sodipodi-0.dtd"
   xmlns="http://www.w3.org/2000/svg"
   xmlns:svg="http://www.w3.org/2000/svg">
  <defs
     id="defs8" />
  <sodipodi:namedview
     id="namedview6"
     pagecolor="#ffffff"
     bordercolor="#666666"
     borderopacity="1.0"
     inkscape:showpageshadow="2"
     inkscape:pageopacity="0.0"
     inkscape:pagecheckerboard="0"
     inkscape:deskcolor="#d1d1d1"
     showgrid="false"
     inkscape:zoom="4.9166667"
     inkscape:cx="13.830508"
     inkscape:cy="20.745763"
     inkscape:window-width="1920"
     inkscape:window-height="1009"
     inkscape:window-x="-8"
     inkscape:window-y="-8"
     inkscape:window-maximized="1"
     inkscape:current-layer="svg4" />
  <g
     id="g1053"
     style="fill:#9251ff;fill-opacity:1">
    <path
       d="m 7,8 3.7,7.6 h 6.5 L 13.5,8 h 4.45 l 3.7,7.6 h 6.5 L 24.45,8 h 4.45 l 3.7,7.6 h 6.5 L 35.4,8 H 41 c 0.8,0 1.5,0.3 2.1,0.9 0.6,0.6 0.9,1.3 0.9,2.1 v 26 c 0,0.8 -0.3,1.5 -0.9,2.1 C 42.5,39.7 41.8,40 41,40 H 7 C 6.2,40 5.5,39.7 4.9,39.1 4.3,38.5 4,37.8 4,37 V 11 C 4,10.2 4.3,9.5 4.9,8.9 5.5,8.3 6.2,8 7,8 Z M 7,18.6 V 37 H 41 V 18.6 Z m 0,0 V 37 Z"
       id="path2"
       sodipodi:nodetypes="ccccccccccccsssssssssssccccccccc"
       style="fill:#9251ff;fill-opacity:1" />
    <path
       id="rect439"
       style="opacity:1;fill-rule:evenodd;stroke-width:1.27976;stroke-linecap:square;paint-order:stroke fill markers;fill:#9251ff;fill-opacity:1"
       d="m 20.986266,21.308084 v 12.814368 l 9.043419,-6.407185 z"
       sodipodi:nodetypes="cccc" />
  </g>
</svg>
