<?xml version="1.0" encoding="UTF-8" standalone="no"?>
<svg
   height="48"
   width="48"
   version="1.1"
   id="svg4"
   sodipodi:docname="copy.svg"
   inkscape:version="1.2 (dc2aedaf03, 2022-05-15)"
   xmlns:inkscape="http://www.inkscape.org/namespaces/inkscape"
   xmlns:sodipodi="http://sodipodi.sourceforge.net/DTD/sodipodi-0.dtd"
   xmlns="http://www.w3.org/2000/svg"
   xmlns:svg="http://www.w3.org/2000/svg">
  <defs
     id="defs8" />
  <sodipodi:namedview
     id="namedview6"
     pagecolor="#ffffff"
     bordercolor="#666666"
     borderopacity="1.0"
     inkscape:showpageshadow="2"
     inkscape:pageopacity="0.0"
     inkscape:pagecheckerboard="0"
     inkscape:deskcolor="#d1d1d1"
     showgrid="false"
     inkscape:zoom="4.9166667"
     inkscape:cx="12.20339"
     inkscape:cy="24"
     inkscape:window-width="1920"
     inkscape:window-height="1009"
     inkscape:window-x="-8"
     inkscape:window-y="-8"
     inkscape:window-maximized="1"
     inkscape:current-layer="svg4" />
  <path
     d="M9 43.95q-1.2 0-2.1-.9-.9-.9-.9-2.1V10.8h3v30.15h23.7v3Zm6-6q-1.2 0-2.1-.9-.9-.9-.9-2.1v-28q0-1.2.9-2.1.9-.9 2.1-.9h22q1.2 0 2.1.9.9.9.9 2.1v28q0 1.2-.9 2.1-.9.9-2.1.9Zm0-3h22v-28H15v28Zm0 0v-28 28Z"
     id="path2"
     style="fill:#ffffff;fill-opacity:1" />
</svg>
