<?xml version="1.0" encoding="UTF-8" standalone="no"?>
<svg
   height="48"
   width="48"
   version="1.1"
   id="svg4"
   sodipodi:docname="moremenu.svg"
   inkscape:version="1.2 (dc2aedaf03, 2022-05-15)"
   xmlns:inkscape="http://www.inkscape.org/namespaces/inkscape"
   xmlns:sodipodi="http://sodipodi.sourceforge.net/DTD/sodipodi-0.dtd"
   xmlns="http://www.w3.org/2000/svg"
   xmlns:svg="http://www.w3.org/2000/svg">
  <defs
     id="defs8" />
  <sodipodi:namedview
     id="namedview6"
     pagecolor="#ffffff"
     bordercolor="#666666"
     borderopacity="1.0"
     inkscape:showpageshadow="2"
     inkscape:pageopacity="0.0"
     inkscape:pagecheckerboard="0"
     inkscape:deskcolor="#d1d1d1"
     showgrid="false"
     inkscape:zoom="4.9166667"
     inkscape:cx="12.20339"
     inkscape:cy="24"
     inkscape:window-width="1920"
     inkscape:window-height="1009"
     inkscape:window-x="-8"
     inkscape:window-y="-8"
     inkscape:window-maximized="1"
     inkscape:current-layer="svg4" />
  <path
     d="M24 40q-1 0-1.7-.7t-.7-1.7q0-1 .7-1.7t1.7-.7q1 0 1.7.7t.7 1.7q0 1-.7 1.7T24 40Zm0-13.6q-1 0-1.7-.7t-.7-1.7q0-1 .7-1.7t1.7-.7q1 0 1.7.7t.7 1.7q0 1-.7 1.7t-1.7.7Zm0-13.6q-1 0-1.7-.7t-.7-1.7q0-1 .7-1.7T24 8q1 0 1.7.7t.7 1.7q0 1-.7 1.7t-1.7.7Z"
     id="path2"
     style="fill:#ffffff;fill-opacity:1" />
</svg>
