<?xml version="1.0" encoding="UTF-8" standalone="no"?>
<svg
   height="48"
   width="48"
   version="1.1"
   id="svg4"
   sodipodi:docname="paste.svg"
   inkscape:version="1.2 (dc2aedaf03, 2022-05-15)"
   xmlns:inkscape="http://www.inkscape.org/namespaces/inkscape"
   xmlns:sodipodi="http://sodipodi.sourceforge.net/DTD/sodipodi-0.dtd"
   xmlns="http://www.w3.org/2000/svg"
   xmlns:svg="http://www.w3.org/2000/svg">
  <defs
     id="defs8" />
  <sodipodi:namedview
     id="namedview6"
     pagecolor="#ffffff"
     bordercolor="#666666"
     borderopacity="1.0"
     inkscape:showpageshadow="2"
     inkscape:pageopacity="0.0"
     inkscape:pagecheckerboard="0"
     inkscape:deskcolor="#d1d1d1"
     showgrid="false"
     inkscape:zoom="4.9166667"
     inkscape:cx="12.20339"
     inkscape:cy="24"
     inkscape:window-width="1920"
     inkscape:window-height="1009"
     inkscape:window-x="-8"
     inkscape:window-y="-8"
     inkscape:window-maximized="1"
     inkscape:current-layer="svg4" />
  <path
     d="M9 42q-1.3 0-2.15-.85Q6 40.3 6 39V9q0-1.3.85-2.15Q7.7 6 9 6h10.1q.35-1.75 1.725-2.875T24 2q1.8 0 3.175 1.125Q28.55 4.25 28.9 6H39q1.3 0 2.15.85Q42 7.7 42 9v30q0 1.3-.85 2.15Q40.3 42 39 42Zm0-3h30V9h-3v4.5H12V9H9v30ZM24 9q.85 0 1.425-.575Q26 7.85 26 7q0-.85-.575-1.425Q24.85 5 24 5q-.85 0-1.425.575Q22 6.15 22 7q0 .85.575 1.425Q23.15 9 24 9Z"
     id="path2"
     style="fill:#ffffff;fill-opacity:1" />
</svg>
